<svg width="43" height="43" viewBox="0 0 43 43" fill="none" xmlns="http://www.w3.org/2000/svg">
<path d="M16.8669 40.0004C16.8669 39.3471 16.8424 37.1972 16.8424 34.5314C16.8424 32.6676 17.4581 31.4515 18.1546 30.8321C13.7682 30.3238 9.15389 28.6106 9.15389 20.9465C9.15389 18.7646 9.92576 16.9799 11.1871 15.583C10.9857 15.0766 10.3042 13.0434 11.3829 10.291C11.3829 10.291 13.0415 9.75256 16.818 12.3393C18.3937 11.8969 20.0843 11.6728 21.7673 11.6691C23.4466 11.6729 25.1372 11.8969 26.7167 12.3393C30.4894 9.75256 32.148 10.291 32.148 10.291C33.2268 13.0434 32.549 15.0766 32.3438 15.583C33.6089 16.9799 34.3733 18.7627 34.3733 20.9465C34.3733 28.6276 29.7533 30.32 25.3462 30.8133C26.0597 31.4345 26.6904 32.6526 26.6904 34.5201C26.6904 37.1915 26.6659 39.3452 26.6659 40.0004C26.6659 40.5369 27.0217 41.1563 28.0251 40.9643C35.8756 38.3173 41.5328 30.8246 41.5328 21.9951C41.5328 10.9518 32.6808 2 21.7636 2C10.8501 2 2 10.9499 2 21.9951C2 30.8283 7.66287 38.323 15.5246 40.9662C16.5073 41.1506 16.8669 40.5332 16.8669 40.0004Z" fill="#D0CFCE"/>
<path d="M16.8669 40.0004C16.8669 39.3471 16.8424 37.1972 16.8424 34.5314C16.8424 32.6676 17.4581 31.4515 18.1546 30.8321C13.7682 30.3238 9.15389 28.6106 9.15389 20.9465C9.15389 18.7646 9.92576 16.9799 11.1871 15.583C10.9857 15.0766 10.3042 13.0434 11.3829 10.291C11.3829 10.291 13.0415 9.75256 16.818 12.3393C18.3937 11.8969 20.0843 11.6728 21.7673 11.6691C23.4466 11.6729 25.1372 11.8969 26.7167 12.3393C30.4894 9.75256 32.148 10.291 32.148 10.291C33.2268 13.0434 32.549 15.0766 32.3438 15.583C33.6089 16.9799 34.3733 18.7627 34.3733 20.9465C34.3733 28.6276 29.7533 30.32 25.3462 30.8133C26.0597 31.4345 26.6904 32.6526 26.6904 34.5201C26.6904 37.1915 26.6659 39.3452 26.6659 40.0004C26.6659 40.5369 27.0217 41.1563 28.0251 40.9643C35.8756 38.3173 41.5328 30.8246 41.5328 21.9951C41.5328 10.9518 32.6808 2 21.7636 2C10.8501 2 2 10.9499 2 21.9951C2 30.8283 7.66287 38.323 15.5246 40.9662C16.5073 41.1506 16.8669 40.5332 16.8669 40.0004Z" stroke="black" stroke-width="2.5" stroke-miterlimit="10" stroke-linecap="round" stroke-linejoin="round"/>
<path d="M7.88306 30.4763C9.69224 31.026 10.4057 31.6284 11.2567 33.0554C12.1057 34.4824 13.1016 36.0751 16.8443 35.1677" stroke="black" stroke-width="2.5" stroke-miterlimit="10" stroke-linecap="round" stroke-linejoin="round"/>
</svg>
