<svg width="43" height="43" viewBox="0 0 43 43" fill="none" xmlns="http://www.w3.org/2000/svg">
<path d="M38.66 2H4.34C3.04765 2 2 3.04765 2 4.34V38.66C2 39.9523 3.04765 41 4.34 41H38.66C39.9523 41 41 39.9523 41 38.66V4.34C41 3.04765 39.9523 2 38.66 2Z" fill="white"/>
<path d="M38.66 2H4.34C3.04765 2 2 3.04765 2 4.34V38.66C2 39.9523 3.04765 41 4.34 41H38.66C39.9523 41 41 39.9523 41 38.66V4.34C41 3.04765 39.9523 2 38.66 2Z" fill="black" fill-opacity="0.16"/>
<path d="M38.66 2H4.34C3.04765 2 2 3.04765 2 4.34V38.66C2 39.9523 3.04765 41 4.34 41H38.66C39.9523 41 41 39.9523 41 38.66V4.34C41 3.04765 39.9523 2 38.66 2Z" stroke="black" stroke-width="2.5" stroke-miterlimit="10"/>
<path d="M9.02002 16.82H13.7V33.2H9.02002V16.82Z" fill="white"/>
<path d="M9.02002 16.82H13.7V33.2H9.02002V16.82Z" fill="black" fill-opacity="0.16"/>
<path d="M9.02002 16.82H13.7V33.2H9.02002V16.82Z" stroke="black" stroke-width="2.5" stroke-linecap="round" stroke-linejoin="round"/>
<path d="M11.3601 13.31C12.8679 13.31 14.0901 12.0877 14.0901 10.58C14.0901 9.07225 12.8679 7.84999 11.3601 7.84999C9.85239 7.84999 8.63013 9.07225 8.63013 10.58C8.63013 12.0877 9.85239 13.31 11.3601 13.31Z" fill="white"/>
<path d="M11.3601 13.31C12.8679 13.31 14.0901 12.0877 14.0901 10.58C14.0901 9.07225 12.8679 7.84999 11.3601 7.84999C9.85239 7.84999 8.63013 9.07225 8.63013 10.58C8.63013 12.0877 9.85239 13.31 11.3601 13.31Z" fill="black" fill-opacity="0.16"/>
<path d="M11.3601 13.31C12.8679 13.31 14.0901 12.0877 14.0901 10.58C14.0901 9.07225 12.8679 7.84999 11.3601 7.84999C9.85239 7.84999 8.63013 9.07225 8.63013 10.58C8.63013 12.0877 9.85239 13.31 11.3601 13.31Z" stroke="black" stroke-width="2.5" stroke-linecap="round" stroke-linejoin="round"/>
<path d="M26.57 20.72C24.847 20.72 23.45 21.6311 23.45 24.23V33.2H18.77V16.82H23.45V18.5438H23.4488C24.0338 17.8787 24.754 17.3461 25.5614 16.9815C26.3687 16.617 27.2445 16.429 28.1303 16.43C31.5764 16.43 34.3703 19.004 34.3703 23.45V33.2H29.6903V24.23C29.6903 21.6311 28.293 20.72 26.57 20.72Z" fill="white"/>
<path d="M26.57 20.72C24.847 20.72 23.45 21.6311 23.45 24.23V33.2H18.77V16.82H23.45V18.5438H23.4488C24.0338 17.8787 24.754 17.3461 25.5614 16.9815C26.3687 16.617 27.2445 16.429 28.1303 16.43C31.5764 16.43 34.3703 19.004 34.3703 23.45V33.2H29.6903V24.23C29.6903 21.6311 28.293 20.72 26.57 20.72Z" fill="black" fill-opacity="0.16"/>
<path d="M26.57 20.72C24.847 20.72 23.45 21.6311 23.45 24.23V33.2H18.77V16.82H23.45V18.5438H23.4488C24.0338 17.8787 24.754 17.3461 25.5614 16.9815C26.3687 16.617 27.2445 16.429 28.1303 16.43C31.5764 16.43 34.3703 19.004 34.3703 23.45V33.2H29.6903V24.23C29.6903 21.6311 28.293 20.72 26.57 20.72Z" stroke="black" stroke-width="2.5" stroke-linecap="round" stroke-linejoin="round"/>
</svg>
